<svg width="486.183" xmlns="http://www.w3.org/2000/svg" height="160.639" fill="none"><g data-testid="Noïta Logo Vektor" style="fill: rgb(0, 0, 0);"><g class="fills" data-testid="svg-path"><path d="M2.066 151.022c0-1.142.686-2.515 2.516-5.261 7.555-11.21 11.901-28.374 11.901-44.62 0-13.731-3.434-26.77-10.302-35.008C2.978 62.475 0 58.581 0 55.609c0-4.575 8.928-7.095 19.686-7.095 14.423 0 21.747 9.38 29.527 9.38 7.78 0 17.395-9.38 34.103-9.38 15.11 0 27.01 8.925 27.01 26.083 0 10.067-2.291 14.417-2.291 29.06 0 14.642 4.121 30.889 11.676 42.104 1.829 2.746 2.516 4.119 2.516 5.261 0 4.806-10.527 8.695-27.466 8.695s-27.466-3.889-27.466-8.695c0-1.142.686-2.515 2.516-5.261 7.555-11.21 11.676-28.143 11.676-45.306 0-21.053-6.638-32.493-19.912-32.493-4.577 0-9.841 1.373-16.022 4.119-1.604 8.925-2.747 18.762-2.747 29.291 0 16.246 4.121 33.179 11.676 44.389 1.829 2.746 2.516 4.119 2.516 5.261 0 4.806-10.527 8.695-27.466 8.695s-27.466-3.889-27.466-8.695Z" class="cls-1" style="fill: rgb(255, 255, 255); fill-opacity: 1;"/></g><g class="fills" data-testid="svg-path"><path d="M127.04 104.568c0-36.837 29.07-56.06 55.624-56.06 26.554 0 55.625 19.223 55.625 56.06 0 36.838-29.071 56.061-55.625 56.061s-55.624-19.218-55.624-56.061Zm59.515 43.478c13.048 0 18.312-12.814 18.312-32.724 0-26.083-7.093-54.231-26.093-54.231-13.049 0-18.312 12.814-18.312 32.723 0 26.084 7.093 54.232 26.093 54.232Z" class="cls-1" style="fill: rgb(255, 255, 255); fill-opacity: 1;"/></g><g class="fills" data-testid="svg-path"><path d="M247.668 0c9.154 0 16.252 7.552 16.252 16.702 0 9.151-7.098 16.477-16.252 16.477-9.615 0-16.939-7.552-16.939-16.477S238.053 0 247.668 0Zm-2.522 151.022c0-1.142.687-2.515 2.517-5.261 7.555-11.21 11.445-29.06 11.445-45.306 0-23.568-13.049-38.672-13.049-43.247 0-4.575 7.093-8.694 21.515-8.694 13.049 0 20.143 4.575 20.143 15.559 0 10.985-2.978 22.881-2.978 36.382 0 16.246 3.89 34.091 11.445 45.306 1.829 2.746 2.516 4.119 2.516 5.261 0 4.806-10.527 8.695-26.554 8.695s-27.01-3.889-27-8.695ZM290.7 0c9.615 0 16.708 7.552 16.708 16.477s-7.093 16.702-16.708 16.702c-9.615 0-16.483-7.782-16.483-16.702C274.217 7.557 281.085 0 290.7 0Z" class="cls-1" style="fill: rgb(255, 255, 255); fill-opacity: 1;"/></g><g class="fills" data-testid="svg-path"><path d="M311.073 132.486c0-14.187 7.554-29.977 7.554-48.508 0-23.337-11.675-21.964-11.675-30.433 0-9.151 19.686-22.425 26.323-22.425 4.808 0 8.011 4.575 9.841 8.694 3.664 7.096 6.868 10.984 14.878 10.984h8.242c5.264 0 8.011 2.977 8.011 6.41 0 3.889-2.747 6.635-7.555 6.635h-23.576v44.163c0 25.397 4.807 33.41 14.422 33.41 8.011 0 15.566-5.262 18.769-5.262 2.06 0 3.659 1.604 3.659 3.433 0 9.15-18.543 21.052-37.998 21.052-16.253 0-30.901-7.777-30.895-28.153Z" class="cls-1" style="fill: rgb(255, 255, 255); fill-opacity: 1;"/></g><g class="fills" data-testid="svg-path"><path d="M384.548 132.717c0-18.762 15.335-26.77 38.686-33.18 13.274-3.663 21.977-10.754 21.977-24.023 0-10.068-5.038-15.56-14.878-15.56-9.154 0-13.736 5.262-14.879 12.358-1.374 8.925-7.324 13.73-15.109 13.73-8.698 0-13.505-6.178-13.505-13.956 0-13.269 14.422-23.567 43.262-23.567 23.576 0 43.718 7.552 43.718 31.35 0 9.381-3.203 19.218-3.203 32.723 0 13.505 4.351 22.195 11.675 29.516 2.748 2.746 3.891 4.119 3.891 6.179 0 5.723-9.385 11.21-20.599 11.21-15.796 0-14.879-10.754-23.345-10.754-8.467 0-13.505 11.896-29.527 11.896-14.879 0-28.153-10.298-28.164-27.922Zm43.944 5.948c8.929 0 16.253-7.552 16.253-19.223 0-2.977-.457-6.179-1.374-9.612-2.291-.686-4.346-.917-6.637-.917-12.588 0-22.203 5.262-22.203 16.016 0 9.381 7.324 13.731 13.961 13.736Z" class="cls-1" style="fill: rgb(255, 255, 255); fill-opacity: 1;"/></g></g></svg>