<svg width="236" xmlns="http://www.w3.org/2000/svg" height="236" fill="none"><g data-testid="Noïta Logo Vektor" style="fill: rgb(0, 0, 0);"><g data-testid="Ebene_1" style="fill: rgb(0, 0, 0);"><g class="fills" data-testid="svg-circle"><circle cx="118" cy="118" class="cls-3" style="fill: rgb(255, 255, 255); fill-opacity: 1;" r="118"/></g><g class="fills" data-testid="svg-circle"><circle cx="118.5" cy="118.5" class="cls-3" style="fill: rgb(40, 20, 60); fill-opacity: 1;" r="107.5"/></g><g class="fills" data-testid="svg-path"><path d="M18.081 140.448c0-.477.287-1.05 1.051-2.198 3.154-4.682 4.969-11.852 4.969-18.639 0-5.736-1.434-11.182-4.302-14.624-1.337-1.528-2.581-3.155-2.581-4.396 0-1.911 3.729-2.964 8.221-2.964 6.023 0 9.081 3.919 12.33 3.919 3.249 0 7.264-3.919 14.241-3.919 6.309 0 11.279 3.728 11.279 10.896 0 4.205-.957 6.022-.957 12.139 0 6.117 1.721 12.903 4.875 17.588.765 1.148 1.051 1.721 1.051 2.198 0 2.008-4.396 3.632-11.469 3.632-7.074 0-11.47-1.624-11.47-3.632 0-.477.287-1.05 1.051-2.198 3.155-4.682 4.876-11.756 4.876-18.926 0-8.794-2.772-13.573-8.315-13.573-1.911 0-4.109.574-6.69 1.721-.67 3.728-1.147 7.837-1.147 12.236 0 6.786 1.72 13.86 4.875 18.542.764 1.148 1.051 1.721 1.051 2.198 0 2.008-4.396 3.632-11.47 3.632-7.073 0-11.469-1.624-11.469-3.632Z" class="cls-1" style="fill: rgb(255, 255, 255); fill-opacity: 1;"/></g><g class="fills" data-testid="svg-path"><path d="M70.268 121.043c0-15.388 12.139-23.418 23.228-23.418 11.088 0 23.228 8.03 23.228 23.418s-12.14 23.418-23.228 23.418c-11.089 0-23.228-8.028-23.228-23.418Zm24.852 18.162c5.449 0 7.647-5.353 7.647-13.67 0-10.895-2.962-22.654-10.896-22.654-5.449 0-7.647 5.353-7.647 13.67 0 10.896 2.962 22.654 10.896 22.654Z" class="cls-1" style="fill: rgb(255, 255, 255); fill-opacity: 1;"/></g><g class="fills" data-testid="svg-path"><path d="M120.64 77.361c3.823 0 6.787 3.155 6.787 6.977 0 3.823-2.964 6.883-6.787 6.883-4.015 0-7.073-3.154-7.073-6.883 0-3.728 3.058-6.977 7.073-6.977Zm-1.053 63.087c0-.477.287-1.05 1.051-2.198 3.155-4.682 4.779-12.139 4.779-18.926 0-9.845-5.449-16.154-5.449-18.065 0-1.911 2.962-3.632 8.985-3.632 5.449 0 8.411 1.911 8.411 6.5 0 4.588-1.244 9.558-1.244 15.197 0 6.787 1.625 14.241 4.779 18.926.764 1.148 1.051 1.721 1.051 2.198 0 2.008-4.396 3.632-11.088 3.632-6.693 0-11.279-1.624-11.275-3.632Zm19.022-63.087c4.016 0 6.978 3.155 6.978 6.883s-2.962 6.977-6.978 6.977c-4.015 0-6.882-3.251-6.882-6.977 0-3.726 2.867-6.883 6.882-6.883Z" class="cls-1" style="fill: rgb(255, 255, 255); fill-opacity: 1;"/></g><g class="fills" data-testid="svg-path"><path d="M147.117 132.705c0-5.926 3.155-12.522 3.155-20.263 0-9.749-4.876-9.176-4.876-12.713 0-3.823 8.221-9.368 10.992-9.368 2.008 0 3.345 1.911 4.11 3.632 1.53 2.964 2.867 4.588 6.213 4.588h3.441c2.198 0 3.345 1.244 3.345 2.678 0 1.624-1.147 2.771-3.154 2.771h-9.845v18.449c0 10.609 2.007 13.957 6.022 13.957 3.345 0 6.5-2.198 7.838-2.198.86 0 1.528.669 1.528 1.434 0 3.822-7.744 8.794-15.868 8.794-6.787 0-12.903-3.249-12.901-11.761Z" class="cls-1" style="fill: rgb(255, 255, 255); fill-opacity: 1;"/></g><g class="fills" data-testid="svg-path"><path d="M177.799 132.801c0-7.837 6.404-11.182 16.154-13.86 5.544-1.53 9.178-4.492 9.178-10.035 0-4.206-2.104-6.5-6.213-6.5-3.823 0-5.736 2.198-6.213 5.162-.574 3.729-3.059 5.736-6.31 5.736-3.632 0-5.639-2.581-5.639-5.83 0-5.543 6.022-9.845 18.065-9.845 9.845 0 18.256 3.155 18.256 13.096 0 3.919-1.337 8.028-1.337 13.67 0 5.641 1.817 9.271 4.875 12.33 1.147 1.147 1.625 1.72 1.625 2.581 0 2.39-3.919 4.682-8.602 4.682-6.596 0-6.213-4.492-9.749-4.492-3.535 0-5.639 4.97-12.329 4.97-6.213 0-11.757-4.302-11.761-11.665Zm18.35 2.485c3.729 0 6.787-3.154 6.787-8.03 0-1.243-.191-2.581-.574-4.015-.956-.287-1.815-.383-2.771-.383-5.257 0-9.272 2.198-9.272 6.69 0 3.919 3.059 5.736 5.83 5.738Z" class="cls-1" style="fill: rgb(255, 255, 255); fill-opacity: 1;"/></g></g></g></svg>