<?xml version="1.0" encoding="UTF-8"?>
<svg xmlns="http://www.w3.org/2000/svg" xmlns:xlink="http://www.w3.org/1999/xlink" version="1.1" viewBox="0 0 1080 1080">
  <defs>
    <style>
      .cls-1 {
        fill: #fff;
      }

      .cls-2 {
        fill: url(#Unbenannter_Verlauf_118);
      }

      .cls-3 {
        fill: url(#Unbenannter_Verlauf_99);
      }
    </style>
    <linearGradient id="Unbenannter_Verlauf_99" data-name="Unbenannter Verlauf 99" x1="0" y1="540" x2="1078" y2="540" gradientUnits="userSpaceOnUse">
      <stop offset=".26" stop-color="#28143c"/>
      <stop offset="1" stop-color="#733042"/>
    </linearGradient>
    <linearGradient id="Unbenannter_Verlauf_118" data-name="Unbenannter Verlauf 118" x1="206" y1="544" x2="974" y2="544" gradientUnits="userSpaceOnUse">
      <stop offset=".12" stop-color="#28143c"/>
      <stop offset=".95" stop-color="#dc554b"/>
    </linearGradient>
  </defs>
  <!-- Generator: Adobe Illustrator 28.6.0, SVG Export Plug-In . SVG Version: 1.2.0 Build 709)  -->
  <g>
    <g id="Ebene_1">
      <circle class="cls-3" cx="539" cy="540" r="539"/>
      <circle class="cls-2" cx="590" cy="544" r="384"/>
      <g>
        <path class="cls-1" d="M82.59,642.54c0-2.18,1.31-4.8,4.8-10.04,14.41-21.39,22.7-54.14,22.7-85.14,0-26.2-6.55-51.08-19.65-66.8-6.11-6.98-11.79-14.41-11.79-20.08,0-8.73,17.03-13.54,37.55-13.54,27.51,0,41.48,17.9,56.32,17.9s33.18-17.9,65.05-17.9c28.82,0,51.52,17.03,51.52,49.77,0,19.21-4.37,27.51-4.37,55.45s7.86,58.94,22.27,80.34c3.49,5.24,4.8,7.86,4.8,10.04,0,9.17-20.08,16.59-52.39,16.59s-52.39-7.42-52.39-16.59c0-2.18,1.31-4.8,4.8-10.04,14.41-21.39,22.27-53.7,22.27-86.45,0-40.17-12.66-62-37.98-62-8.73,0-18.77,2.62-30.56,7.86-3.06,17.03-5.24,35.8-5.24,55.89,0,31,7.86,63.31,22.27,84.7,3.49,5.24,4.8,7.86,4.8,10.04,0,9.17-20.08,16.59-52.39,16.59s-52.39-7.42-52.39-16.59Z"/>
        <path class="cls-1" d="M320.97,553.9c0-70.29,55.45-106.97,106.1-106.97s106.1,36.68,106.1,106.97-55.45,106.97-106.1,106.97-106.1-36.67-106.1-106.97ZM434.49,636.86c24.89,0,34.93-24.45,34.93-62.44,0-49.77-13.53-103.48-49.77-103.48-24.89,0-34.93,24.45-34.93,62.44,0,49.77,13.53,103.48,49.77,103.48Z"/>
        <path class="cls-1" d="M551.06,354.37c17.46,0,31,14.41,31,31.87s-13.54,31.44-31,31.44c-18.34,0-32.31-14.41-32.31-31.44s13.97-31.87,32.31-31.87ZM546.25,642.54c0-2.18,1.31-4.8,4.8-10.04,14.41-21.39,21.83-55.45,21.83-86.45,0-44.97-24.89-73.79-24.89-82.52s13.53-16.59,41.04-16.59c24.89,0,38.42,8.73,38.42,29.69s-5.68,43.66-5.68,69.42c0,31,7.42,65.05,21.83,86.45,3.49,5.24,4.8,7.86,4.8,10.04,0,9.17-20.08,16.59-50.65,16.59s-51.52-7.42-51.52-16.59ZM633.14,354.37c18.34,0,31.87,14.41,31.87,31.44s-13.53,31.87-31.87,31.87-31.44-14.85-31.44-31.87,13.1-31.44,31.44-31.44Z"/>
        <path class="cls-1" d="M672,607.17c0-27.07,14.41-57.2,14.41-92.56,0-44.53-22.27-41.91-22.27-58.07,0-17.46,37.55-42.79,50.21-42.79,9.17,0,15.28,8.73,18.77,16.59,6.99,13.54,13.1,20.96,28.38,20.96h15.72c10.04,0,15.28,5.68,15.28,12.23,0,7.42-5.24,12.66-14.41,12.66h-44.97v84.27c0,48.46,9.17,63.75,27.51,63.75,15.28,0,29.69-10.04,35.8-10.04,3.93,0,6.98,3.06,6.98,6.55,0,17.46-35.37,40.17-72.48,40.17-31,0-58.94-14.84-58.94-53.7Z"/>
        <path class="cls-1" d="M812.15,607.61c0-35.8,29.25-51.08,73.79-63.31,25.32-6.99,41.92-20.52,41.92-45.84,0-19.21-9.61-29.69-28.38-29.69-17.46,0-26.2,10.04-28.38,23.58-2.62,17.03-13.97,26.2-28.82,26.2-16.59,0-25.76-11.79-25.76-26.63,0-25.32,27.51-44.97,82.52-44.97,44.97,0,83.39,14.41,83.39,59.82,0,17.9-6.11,36.67-6.11,62.44s8.3,42.35,22.27,56.32c5.24,5.24,7.42,7.86,7.42,11.79,0,10.92-17.9,21.39-39.29,21.39-30.13,0-28.38-20.52-44.53-20.52s-25.76,22.7-56.32,22.7c-28.38,0-53.7-19.65-53.7-53.27ZM895.97,618.96c17.03,0,31-14.41,31-36.68,0-5.68-.87-11.79-2.62-18.34-4.37-1.31-8.29-1.75-12.66-1.75-24.01,0-42.35,10.04-42.35,30.56,0,17.9,13.97,26.2,26.63,26.2Z"/>
      </g>
    </g>
  </g>
</svg>